{
	"asset":{
		"generator":"Khronos glTF Blender I/O v3.6.27",
		"version":"2.0"
	},
	"scene":0,
	"scenes":[
		{
			"name":"Scene",
			"nodes":[
				0
			]
		}
	],
	"nodes":[
		{
			"mesh":0,
			"name":"Plane.004",
			"rotation":[
				0.7071068286895752,
				0,
				0,
				0.7071067690849304
			],
			"scale":[
				0.1949579119682312,
				0.1949579119682312,
				0.1949579119682312
			],
			"translation":[
				0.001534443348646164,
				-0.08888910710811615,
				-0.15820945799350739
			]
		}
	],
	"materials":[
		{
			"doubleSided":true,
			"name":"Material.004",
			"pbrMetallicRoughness":{
				"baseColorFactor":[
					0,
					1,
					0.31854701042175293,
					1
				],
				"metallicFactor":0,
				"roughnessFactor":0.5
			}
		}
	],
	"meshes":[
		{
			"name":"Plane.003",
			"primitives":[
				{
					"attributes":{
						"POSITION":0,
						"NORMAL":1,
						"TEXCOORD_0":2,
						"TEXCOORD_1":3
					},
					"indices":4,
					"material":0
				}
			]
		}
	],
	"accessors":[
		{
			"bufferView":0,
			"componentType":5126,
			"count":6011,
			"max":[
				1.5371723175048828,
				2.5734612941741943,
				-0.44887474179267883
			],
			"min":[
				-1.5659430027008057,
				-1.6675770282745361,
				-3.134293556213379
			],
			"type":"VEC3"
		},
		{
			"bufferView":1,
			"componentType":5126,
			"count":6011,
			"type":"VEC3"
		},
		{
			"bufferView":2,
			"componentType":5126,
			"count":6011,
			"type":"VEC2"
		},
		{
			"bufferView":3,
			"componentType":5126,
			"count":6011,
			"type":"VEC2"
		},
		{
			"bufferView":4,
			"componentType":5123,
			"count":11226,
			"type":"SCALAR"
		}
	],
	"bufferViews":[
		{
			"buffer":0,
			"byteLength":72132,
			"byteOffset":0,
			"target":34962
		},
		{
			"buffer":0,
			"byteLength":72132,
			"byteOffset":72132,
			"target":34962
		},
		{
			"buffer":0,
			"byteLength":48088,
			"byteOffset":144264,
			"target":34962
		},
		{
			"buffer":0,
			"byteLength":48088,
			"byteOffset":192352,
			"target":34962
		},
		{
			"buffer":0,
			"byteLength":22452,
			"byteOffset":240440,
			"target":34963
		}
	],
	"buffers":[
		{
			"byteLength":262892,
			"uri":"data:application/octet-stream;base64,"
		}
	]
}
